# xmcd
#
# Track frame offsets: 
#        150
#        15022
#        29970
#        44592
#        60262
#        76475
#        89210
#        108579
#        124335
#        152017
#        172945
#        196880
#        214102
#
# Disc length: 3138 seconds
#
# Revision: 1
# Processed by: cddbd v1.5.2PL0 Copyright (c) Steve Scherf et al.
# Submitted via: ExactAudioCopy v0.95a5
#
DISCID=ad0c400d
DTITLE=Various Artist - 金曲柔情
DYEAR=2002
DGENRE=Folk
TTITLE0=交城山
TTITLE1=绣金匾
TTITLE2=兰花花
TTITLE3=枉凝眉
TTITLE4=在那桃花盛开的地方
TTITLE5=军港之夜
TTITLE6=十里屯
TTITLE7=美丽的草原我的家
TTITLE8=小河淌水
TTITLE9=小白菜
TTITLE10=赞歌
TTITLE11=牧羊姑娘
TTITLE12=彩云追月
EXTD=
EXTT0=
EXTT1=
EXTT2=
EXTT3=
EXTT4=
EXTT5=
EXTT6=
EXTT7=
EXTT8=
EXTT9=
EXTT10=
EXTT11=
EXTT12=
PLAYORDER=
